<?xml version="1.0" encoding="utf-8"?>
<!-- Generator: Adobe Illustrator 25.4.0, SVG Export Plug-In . SVG Version: 6.00 Build 0)  -->
<svg version="1.1" id="Layer_1" xmlns="http://www.w3.org/2000/svg" xmlns:xlink="http://www.w3.org/1999/xlink" x="0px" y="0px"
	 viewBox="0 0 144 173.6" style="enable-background:new 0 0 144 173.6;" xml:space="preserve">
<style type="text/css">
	.st0{display:none;fill:none;stroke:#D5DEF8;stroke-miterlimit:10;}
	.st1{fill:#C08957;}
	.st2{fill:#D5DEF8;}
	.st3{font-family:'Roboto-Light';}
	.st4{font-size:26px;}
	.st5{letter-spacing:5;}
</style>
<g>
	<g>
		<polygon class="st0" points="24.3,181.5 129,172.8 111.7,-45.5 7,-36.8 		"/>
		<g>
			<path id="Steak_00000051361873151716360100000016471584671604917652_" d="M46,0.1l-0.1,0.1c-0.3,0.2-0.3,0.5-0.2,0.7l30.1,56.9
				c0.1,0.3-0.2,0.7,0.7,0.2l1.1-0.5c0.3-0.1,0.4-0.5,0.2-0.8L46.8,0.3C46.7,0,46.3-0.1,46,0.1z"/>
			<path id="Hand_00000176014384482412998530000007308495946416800394_" class="st1" d="M82.4,67.9l-3.6-5.5c0,0,0,0,0,0
				c-0.1-0.3-1.2-3.1-1.4-3.8L77.1,58c0,0,0,0,0-0.1l-0.2-0.4v0c-0.4-0.7,0.1-1.7,1-1.6c1,0,2.2,0.2,2.8,1c1.3,1.5,4.1,4.6,4.1,4.6
				l4.7,5.8c0,0,0,0.1,0.1,0.1c0.1,0.7,1.4,6.6,1.8,8.2c0.5,1.7,2.7,7.5,2.4,11c-0.1,1.1-0.2,1.8-0.2,2.4c-0.1,0.9,0.4,1.7,1.1,2.2
				l1.5,0.8c0.2,0.1,0.2,0.3,0.1,0.4l-10.5,12c-0.1,0.1-0.3,0.1-0.4,0l-7-9c-0.3-0.4-0.8-0.8-1.2-1.1l-7.3-4.5c0,0,0,0,0,0
				c-0.3-0.3-5-4.8-6.6-5.7c-1.6-1-5.9-3.2-7.2-4.6s-3-5.9-2.7-6.8c0.3-0.8,1.4-0.8,1.6-0.8c0,0,0.1,0,0.1,0
				c0.2,0.1,1.4,0.7,2.7,2.7c1.5,2.3,5.4,3.8,5.6,3.7c0.2-0.1,0.2-1.3-0.5-2.2c-0.5-0.7-2.1-3.2-2.7-4.2c-0.2-0.3-0.3-0.6-0.4-1
				c-0.3-1.9-1.1-8.4-1-9c0.1-0.7,1.3-3,2.3-3.1c1-0.1,2.5,0.8,2,3c-0.4,1.8,0.3,5.6,0.6,6.9c0.1,0.3,0.1,0.5,0.3,0.7l1.8,2.2
				c0.2,0.2,0.5,0.1,0.5-0.2c-0.4-2-1.2-6.5-0.9-9.3c0.4-3.7,2.7-9.3,3-9.8c0.2-0.3,1.1-1,2-1c0.8,0.1,1.4-0.3,1.8,0.7l0.2,0.3
				c0,0.1-0.1,0.4-0.1,0.4c-0.4,0.6-2.7,3.4-2.6,6.9c0.1,7,0.4,6.3,0.9,7.4c0.3,0.5,1.2,1,1.7,1.7c0.2,0.2,0.6,0,0.5-0.3l-1-2.4
				c-0.3-0.7-0.5-1.8-0.5-2.5c-0.2-5.3,1.7-9.8,2-9.5c0.2,0.2,1.9,3.4,2.2,4c0,0.1,0,0.3,0,0.4c-0.1,0.5-0.7,2.7-0.5,4.8
				c0.2,2.3,3.4,5.3,3.6,5.5c0,0,0,0,0,0l0.9,1.1c0,0,0,0,0,0c0.2,0.2,1.9,1.3,2.7,0.6C82.8,69.7,82.5,68.2,82.4,67.9
				C82.4,67.9,82.4,67.9,82.4,67.9z"/>
			<g id="Arm_00000022540730189610574850000010268244174163109021_">
				<path class="st2" d="M83,100.6c-0.1,0.2-6,5.9-5.9,7.3c0.2,1.3,4.8,5.8,4.8,5.8s10.5-9.7,11.5-10.9c2.5-3.1,5.8-6.9,5.6-8.8
					c-0.2-2.2-2.4-4.6-2.4-4.6l-1.7-1.8L83,100.6z"/>
				<path id="Arm_00000034084462760435558290000003562964972170772394_" d="M97.7,91.1c0,0-0.6,2.9-2,6c-1.9,4-12.3,13.1-12.7,13.5
					c0,0,0,0,0,0c-0.3,0.3-6.2,6.3-6.9,5.5c-0.6-0.7,3.6-4.6,3.4-4.8c-0.1-0.1-0.8-0.8-0.8-0.9c-0.5-0.7-5.2,5.2-4.7,6.4
					c0.5,1.5,1.4,1.3,2.4,2.8c1.1,1.5,5.7,8,10,13.1c4.3,5.2,18.2,17.1,18.2,17.1l23.3,22.4c0,0,1.6,1.4,1.6,1.4
					c-0.1-0.5-0.1-0.6-0.3-2.4l-0.3-3.8c0,0-2.9-37.8-3.2-41.5c-0.5-6.7-19.7-26.6-20.7-27.6c0,0,0,0-0.1-0.1l-5.1-7.1
					c-0.2-0.3-1.1-1.2-1.8-1.6c-0.2-0.1-0.5-0.2-0.4-0.2C97.6,89.4,97.7,90.7,97.7,91.1z"/>
			</g>
		</g>
	</g>
	<g>
		<rect y="119.5" width="144" height="40.2"/>
		<text transform="matrix(1 0 0 1 36.7044 147.2085)" class="st2 st3 st4 st5">Leto</text>
	</g>
</g>
</svg>
